# xmcd CD database file
#
# Track frame offsets:
#	150
#	14628
#	33427
#	52258
#	86693
#
# Disc length: 1352 seconds
#
# Revision: 1
# Processed by: cddbd v1.5.2PL0 Copyright (c) Steve Scherf et al.
# Submitted via: CDex 1.81
#
DISCID=3f054605
DTITLE=Era - Looking For Something
DYEAR=2003
DGENRE=New Age
TTITLE0=Looking For Something (radio edit)
TTITLE1=Looking For Something
TTITLE2=Looking For Something (instrumental)
TTITLE3=Looking For Something (darren tate mix)
TTITLE4=Looking For Something (darren tate mix edit)
EXTD=YEAR: 2003
EXTT0=
EXTT1=
EXTT2=
EXTT3=
EXTT4=
PLAYORDER=
